<svg xmlns="http://www.w3.org/2000/svg" xmlns:xlink="http://www.w3.org/1999/xlink" width="500" zoomAndPan="magnify" viewBox="0 0 375 374.999991" height="500" preserveAspectRatio="xMidYMid meet" version="1.0"><defs><filter x="0%" y="0%" width="100%" height="100%" id="ec6d2a8468"><feColorMatrix values="0 0 0 0 1 0 0 0 0 1 0 0 0 0 1 0 0 0 1 0" color-interpolation-filters="sRGB"/></filter><clipPath id="1931e17b41"><path d="M 150 44.0625 L 223 44.0625 L 223 94 L 150 94 Z M 150 44.0625 " clip-rule="nonzero"/></clipPath><clipPath id="01a4a8b4f0"><path d="M 150 44.0625 L 223 44.0625 L 223 94 L 150 94 Z M 150 44.0625 " clip-rule="nonzero"/></clipPath><clipPath id="24614e20ca"><path d="M 37.5 215 L 66 215 L 66 230 L 37.5 230 Z M 37.5 215 " clip-rule="nonzero"/></clipPath><clipPath id="e17d505c48"><path d="M 166.179688 302.742188 L 208.355469 302.742188 L 208.355469 330.914062 L 166.179688 330.914062 Z M 166.179688 302.742188 " clip-rule="nonzero"/></clipPath><clipPath id="4fbbc7497d"><path d="M 309 215.226562 L 337.242188 215.226562 L 337.242188 229.636719 L 309 229.636719 Z M 309 215.226562 " clip-rule="nonzero"/></clipPath><clipPath id="8678e9d25e"><path d="M 150 44.0625 L 223 44.0625 L 223 94 L 150 94 Z M 150 44.0625 " clip-rule="nonzero"/></clipPath><mask id="9ba6d95bc9"><g filter="url(#ec6d2a8468)"><rect x="-37.5" width="450" fill="#000000" y="-37.499999" height="449.999989" fill-opacity="0.68"/></g></mask><clipPath id="af66ebe38d"><path d="M 68 1.101562 L 71 1.101562 L 71 139.695312 L 68 139.695312 Z M 68 1.101562 " clip-rule="nonzero"/></clipPath><clipPath id="434f6d9e5f"><path d="M 0.0898438 69 L 138.679688 69 L 138.679688 72 L 0.0898438 72 Z M 0.0898438 69 " clip-rule="nonzero"/></clipPath><clipPath id="179fea667e"><rect x="0" width="140" y="0" height="141"/></clipPath><clipPath id="9f67f0e8d4"><path d="M 126.433594 170.011719 L 248.910156 170.011719 L 248.910156 238.769531 L 126.433594 238.769531 Z M 126.433594 170.011719 " clip-rule="nonzero"/></clipPath></defs><g clip-path="url(#1931e17b41)"><path fill="#3d7ad5" d="M 205.765625 90.589844 C 204.992188 90.589844 204.355469 89.964844 204.355469 89.179688 C 204.355469 88.402344 204.992188 87.769531 205.765625 87.769531 C 206.554688 87.769531 207.175781 88.402344 207.175781 89.179688 C 207.175781 89.964844 206.554688 90.589844 205.765625 90.589844 Z M 199.394531 90.589844 C 198.621094 90.589844 197.984375 89.964844 197.984375 89.179688 C 197.984375 88.402344 198.621094 87.769531 199.394531 87.769531 C 200.179688 87.769531 200.804688 88.402344 200.804688 89.179688 C 200.804688 89.964844 200.179688 90.589844 199.394531 90.589844 Z M 193.019531 90.589844 C 192.246094 90.589844 191.613281 89.964844 191.613281 89.179688 C 191.613281 88.402344 192.246094 87.769531 193.019531 87.769531 C 193.792969 87.769531 194.433594 88.402344 194.433594 89.179688 C 194.433594 89.964844 193.792969 90.589844 193.019531 90.589844 Z M 186.734375 90.574219 C 185.996094 90.523438 185.410156 89.941406 185.410156 89.179688 C 185.410156 88.429688 185.996094 87.835938 186.734375 87.785156 C 187.472656 87.835938 188.058594 88.429688 188.058594 89.179688 C 188.058594 89.941406 187.472656 90.523438 186.734375 90.574219 Z M 180.445312 90.589844 C 179.675781 90.589844 179.039062 89.964844 179.039062 89.179688 C 179.039062 88.402344 179.675781 87.769531 180.445312 87.769531 C 181.222656 87.769531 181.855469 88.402344 181.855469 89.179688 C 181.855469 89.964844 181.222656 90.589844 180.445312 90.589844 Z M 174.074219 90.589844 C 173.289062 90.589844 172.664062 89.964844 172.664062 89.179688 C 172.664062 88.402344 173.289062 87.769531 174.074219 87.769531 C 174.851562 87.769531 175.484375 88.402344 175.484375 89.179688 C 175.484375 89.964844 174.851562 90.589844 174.074219 90.589844 Z M 167.703125 90.589844 C 166.914062 90.589844 166.292969 89.964844 166.292969 89.179688 C 166.292969 88.402344 166.914062 87.769531 167.703125 87.769531 C 168.476562 87.769531 169.113281 88.402344 169.113281 89.179688 C 169.113281 89.964844 168.476562 90.589844 167.703125 90.589844 Z M 203.734375 70.019531 C 203.292969 71.402344 203.386719 72.894531 203.914062 74.25 C 204.796875 76.515625 205.75 80.691406 202.253906 83.082031 C 197.277344 86.511719 192.441406 82.074219 191.527344 77.027344 C 190.589844 71.886719 191.832031 68.15625 195.882812 66.910156 C 199.917969 65.667969 186.652344 44.0625 186.652344 44.0625 C 186.652344 44.0625 173.550781 65.667969 177.585938 66.910156 C 181.636719 68.15625 182.878906 71.886719 181.941406 77.027344 C 181.027344 82.074219 176.191406 86.511719 171.214844 83.082031 C 167.71875 80.691406 168.671875 76.515625 169.554688 74.25 C 170.082031 72.894531 170.179688 71.402344 169.734375 70.019531 C 166.347656 59.476562 150.535156 59.613281 150.535156 59.613281 C 165.933594 80.914062 165.769531 93.035156 165.769531 93.035156 L 207.699219 93.035156 C 207.699219 93.035156 207.535156 80.914062 222.933594 59.613281 C 222.933594 59.613281 207.121094 59.476562 203.734375 70.019531 " fill-opacity="1" fill-rule="nonzero"/></g><path fill="#3d7ad5" d="M 205.285156 95.996094 L 168.1875 95.996094 C 166.941406 95.996094 165.929688 97.003906 165.929688 98.25 C 165.929688 99.496094 166.941406 100.507812 168.1875 100.507812 L 205.285156 100.507812 C 206.527344 100.507812 207.539062 99.496094 207.539062 98.25 C 207.539062 97.003906 206.527344 95.996094 205.285156 95.996094 " fill-opacity="1" fill-rule="nonzero"/><g clip-path="url(#01a4a8b4f0)"><path fill="#3d7ad5" d="M 205.765625 90.589844 C 204.992188 90.589844 204.355469 89.964844 204.355469 89.179688 C 204.355469 88.402344 204.992188 87.769531 205.765625 87.769531 C 206.554688 87.769531 207.175781 88.402344 207.175781 89.179688 C 207.175781 89.964844 206.554688 90.589844 205.765625 90.589844 Z M 199.394531 90.589844 C 198.621094 90.589844 197.984375 89.964844 197.984375 89.179688 C 197.984375 88.402344 198.621094 87.769531 199.394531 87.769531 C 200.179688 87.769531 200.804688 88.402344 200.804688 89.179688 C 200.804688 89.964844 200.179688 90.589844 199.394531 90.589844 Z M 193.019531 90.589844 C 192.246094 90.589844 191.613281 89.964844 191.613281 89.179688 C 191.613281 88.402344 192.246094 87.769531 193.019531 87.769531 C 193.792969 87.769531 194.433594 88.402344 194.433594 89.179688 C 194.433594 89.964844 193.792969 90.589844 193.019531 90.589844 Z M 186.734375 90.574219 C 185.996094 90.523438 185.410156 89.941406 185.410156 89.179688 C 185.410156 88.429688 185.996094 87.835938 186.734375 87.785156 C 187.472656 87.835938 188.058594 88.429688 188.058594 89.179688 C 188.058594 89.941406 187.472656 90.523438 186.734375 90.574219 Z M 180.445312 90.589844 C 179.675781 90.589844 179.039062 89.964844 179.039062 89.179688 C 179.039062 88.402344 179.675781 87.769531 180.445312 87.769531 C 181.222656 87.769531 181.855469 88.402344 181.855469 89.179688 C 181.855469 89.964844 181.222656 90.589844 180.445312 90.589844 Z M 174.074219 90.589844 C 173.289062 90.589844 172.664062 89.964844 172.664062 89.179688 C 172.664062 88.402344 173.289062 87.769531 174.074219 87.769531 C 174.851562 87.769531 175.484375 88.402344 175.484375 89.179688 C 175.484375 89.964844 174.851562 90.589844 174.074219 90.589844 Z M 167.703125 90.589844 C 166.914062 90.589844 166.292969 89.964844 166.292969 89.179688 C 166.292969 88.402344 166.914062 87.769531 167.703125 87.769531 C 168.476562 87.769531 169.113281 88.402344 169.113281 89.179688 C 169.113281 89.964844 168.476562 90.589844 167.703125 90.589844 Z M 203.734375 70.019531 C 203.292969 71.402344 203.386719 72.894531 203.914062 74.25 C 204.796875 76.515625 205.75 80.691406 202.253906 83.082031 C 197.277344 86.511719 192.441406 82.074219 191.527344 77.027344 C 190.589844 71.886719 191.832031 68.15625 195.882812 66.910156 C 199.917969 65.667969 186.652344 44.0625 186.652344 44.0625 C 186.652344 44.0625 173.550781 65.667969 177.585938 66.910156 C 181.636719 68.15625 182.878906 71.886719 181.941406 77.027344 C 181.027344 82.074219 176.191406 86.511719 171.214844 83.082031 C 167.71875 80.691406 168.671875 76.515625 169.554688 74.25 C 170.082031 72.894531 170.179688 71.402344 169.734375 70.019531 C 166.347656 59.476562 150.535156 59.613281 150.535156 59.613281 C 165.933594 80.914062 165.769531 93.035156 165.769531 93.035156 L 207.699219 93.035156 C 207.699219 93.035156 207.535156 80.914062 222.933594 59.613281 C 222.933594 59.613281 207.121094 59.476562 203.734375 70.019531 " fill-opacity="1" fill-rule="nonzero"/></g><path fill="#3d7ad5" d="M 205.285156 95.996094 L 168.1875 95.996094 C 166.941406 95.996094 165.929688 97.003906 165.929688 98.25 C 165.929688 99.496094 166.941406 100.507812 168.1875 100.507812 L 205.285156 100.507812 C 206.527344 100.507812 207.539062 99.496094 207.539062 98.25 C 207.539062 97.003906 206.527344 95.996094 205.285156 95.996094 " fill-opacity="1" fill-rule="nonzero"/><path fill="#3d7ad5" d="M 190.914062 107.128906 C 189.34375 105.164062 186.480469 104.839844 184.511719 106.410156 C 182.546875 107.980469 182.222656 110.84375 183.792969 112.8125 C 185.359375 114.777344 188.226562 115.101562 190.195312 113.53125 C 192.160156 111.960938 192.484375 109.097656 190.914062 107.128906 " fill-opacity="1" fill-rule="nonzero"/><path fill="#3d7ad5" d="M 168.390625 109.542969 C 167.699219 110.160156 167.613281 111.003906 167.589844 111.878906 C 167.566406 112.613281 166.652344 112.640625 166.398438 112.039062 C 165.96875 111.019531 166.167969 109.855469 166.921875 109.03125 C 167.378906 108.535156 168.648438 107.796875 169.21875 108.503906 C 169.542969 108.902344 168.59375 109.359375 168.390625 109.542969 Z M 168.628906 106.945312 C 166.113281 106.945312 164.074219 108.984375 164.074219 111.5 C 164.074219 114.015625 166.113281 116.054688 168.628906 116.054688 C 171.144531 116.054688 173.183594 114.015625 173.183594 111.5 C 173.183594 108.984375 171.144531 106.945312 168.628906 106.945312 " fill-opacity="1" fill-rule="nonzero"/><path fill="#3d7ad5" d="M 151.753906 114.542969 C 151.347656 115.085938 150.738281 115.390625 150.375 115.988281 C 149.992188 116.617188 149.804688 117.378906 149.65625 118.09375 C 149.554688 118.59375 148.710938 118.613281 148.628906 118.09375 C 148.460938 117.046875 148.582031 116.074219 149.222656 115.199219 C 149.726562 114.5 150.625 113.832031 151.523438 113.972656 C 151.757812 114.007812 151.894531 114.355469 151.753906 114.542969 Z M 152.082031 112.640625 C 149.644531 112.019531 147.164062 113.496094 146.546875 115.933594 C 145.925781 118.371094 147.402344 120.851562 149.839844 121.46875 C 152.277344 122.089844 154.753906 120.613281 155.375 118.175781 C 155.992188 115.738281 154.519531 113.257812 152.082031 112.640625 " fill-opacity="1" fill-rule="nonzero"/><path fill="#3d7ad5" d="M 135.378906 123.355469 C 134.917969 123.847656 134.332031 124.089844 133.96875 124.691406 C 133.625 125.265625 133.480469 126.023438 133.515625 126.683594 C 133.550781 127.292969 132.707031 127.320312 132.519531 126.816406 C 132.144531 125.804688 132.289062 124.832031 132.886719 123.933594 C 133.359375 123.222656 134.296875 122.46875 135.203125 122.695312 C 135.5 122.769531 135.574219 123.144531 135.378906 123.355469 Z M 134.964844 121.609375 C 132.453125 121.609375 130.410156 123.648438 130.410156 126.164062 C 130.410156 128.679688 132.453125 130.722656 134.964844 130.722656 C 137.480469 130.722656 139.523438 128.679688 139.523438 126.164062 C 139.523438 123.648438 137.480469 121.609375 134.964844 121.609375 " fill-opacity="1" fill-rule="nonzero"/><path fill="#3d7ad5" d="M 121.996094 134.777344 C 121.480469 135.128906 120.9375 135.277344 120.511719 135.765625 C 120.09375 136.246094 119.890625 136.867188 119.746094 137.476562 C 119.613281 138.035156 118.660156 138.082031 118.5625 137.476562 C 118.398438 136.433594 118.683594 135.460938 119.464844 134.71875 C 120.09375 134.125 121.183594 133.695312 121.996094 134.152344 C 122.246094 134.292969 122.210938 134.628906 121.996094 134.777344 Z M 121.332031 132.367188 C 118.816406 132.367188 116.777344 134.40625 116.777344 136.921875 C 116.777344 139.4375 118.816406 141.476562 121.332031 141.476562 C 123.847656 141.476562 125.886719 139.4375 125.886719 136.921875 C 125.886719 134.40625 123.847656 132.367188 121.332031 132.367188 " fill-opacity="1" fill-rule="nonzero"/><path fill="#3d7ad5" d="M 110.242188 147.101562 C 109.390625 147.683594 108.71875 148.113281 108.601562 149.269531 C 108.554688 149.746094 107.832031 149.921875 107.707031 149.390625 C 107.488281 148.453125 107.714844 147.632812 108.445312 146.988281 C 108.902344 146.585938 109.632812 146.167969 110.242188 146.453125 C 110.519531 146.582031 110.453125 146.957031 110.242188 147.101562 Z M 110.515625 145.144531 C 108 145.144531 105.960938 147.183594 105.960938 149.699219 C 105.960938 152.214844 108 154.257812 110.515625 154.257812 C 113.03125 154.257812 115.070312 152.214844 115.070312 149.699219 C 115.070312 147.183594 113.03125 145.144531 110.515625 145.144531 " fill-opacity="1" fill-rule="nonzero"/><path fill="#3d7ad5" d="M 101.144531 162.953125 C 100.765625 163.308594 100.320312 163.550781 100.027344 163.988281 C 99.734375 164.425781 99.542969 165.003906 99.445312 165.511719 C 99.34375 166.023438 98.667969 165.828125 98.617188 165.402344 C 98.453125 164.050781 99.382812 162.378906 100.933594 162.445312 C 101.179688 162.457031 101.339844 162.769531 101.144531 162.953125 Z M 101.402344 161.085938 C 98.890625 161.085938 96.851562 163.128906 96.851562 165.644531 C 96.851562 168.160156 98.890625 170.199219 101.402344 170.199219 C 103.921875 170.199219 105.960938 168.160156 105.960938 165.644531 C 105.960938 163.128906 103.921875 161.085938 101.402344 161.085938 " fill-opacity="1" fill-rule="nonzero"/><path fill="#3d7ad5" d="M 95.804688 182.132812 C 95.472656 182.636719 94.921875 182.921875 94.597656 183.449219 C 94.257812 184 94.210938 184.667969 94.09375 185.292969 C 93.972656 185.914062 93.160156 185.769531 92.972656 185.292969 C 92.632812 184.421875 92.824219 183.476562 93.34375 182.714844 C 93.777344 182.082031 94.617188 181.386719 95.429688 181.476562 C 95.730469 181.511719 96.007812 181.828125 95.804688 182.132812 Z M 95.660156 180.359375 C 93.144531 180.359375 91.105469 182.398438 91.105469 184.914062 C 91.105469 187.429688 93.144531 189.46875 95.660156 189.46875 C 98.175781 189.46875 100.214844 187.429688 100.214844 184.914062 C 100.214844 182.398438 98.175781 180.359375 95.660156 180.359375 " fill-opacity="1" fill-rule="nonzero"/><path fill="#3d7ad5" d="M 94.15625 201.117188 C 93.660156 201.355469 93.144531 201.46875 92.777344 201.910156 C 92.410156 202.351562 92.308594 202.960938 92.15625 203.503906 C 92.019531 204 91.230469 204.035156 91.113281 203.503906 C 90.75 201.875 92.082031 199.46875 94.039062 200.238281 C 94.386719 200.375 94.566406 200.917969 94.15625 201.117188 Z M 93.890625 198.671875 C 91.375 198.671875 89.335938 200.710938 89.335938 203.226562 C 89.335938 205.742188 91.375 207.78125 93.890625 207.78125 C 96.40625 207.78125 98.445312 205.742188 98.445312 203.226562 C 98.445312 200.710938 96.40625 198.671875 93.890625 198.671875 " fill-opacity="1" fill-rule="nonzero"/><path fill="#3d7ad5" d="M 94.144531 135.847656 C 92.773438 140.921875 89.703125 145.355469 88.636719 150.523438 C 88.59375 150.742188 88.242188 150.691406 88.25 150.472656 C 88.429688 146.082031 90.375 142.214844 91.796875 138.128906 C 93.582031 132.992188 94.167969 121.621094 94.308594 122.230469 C 95.367188 126.796875 95.371094 131.308594 94.144531 135.847656 Z M 83.203125 224.363281 C 83.460938 224.457031 73.371094 222.335938 67.074219 214.875 C 58.375 204.570312 56.421875 196.980469 56.730469 197.546875 C 62.484375 208.085938 71.542969 220.105469 83.203125 224.363281 Z M 74.640625 147.941406 C 74.625 158.359375 70.75 167.914062 69.234375 178.101562 C 67.675781 188.589844 71.519531 198.570312 77.496094 207.050781 C 77.632812 207.246094 77.316406 207.484375 77.164062 207.304688 C 71.210938 200.390625 67.417969 191.21875 67.089844 182.054688 C 66.671875 170.4375 74.644531 147.117188 74.640625 147.941406 Z M 76.664062 167.847656 C 73.121094 189.46875 77.058594 196.480469 76.972656 196.363281 C 68.457031 184.914062 76.796875 167.03125 76.664062 167.847656 Z M 152.492188 90.402344 C 149.871094 80.949219 139.011719 80.339844 132.582031 86.414062 C 128.84375 89.949219 126.390625 94.316406 124.671875 99.03125 C 122.542969 93.601562 117.191406 90.011719 110.644531 92.453125 C 106.796875 93.886719 103.152344 97.34375 102.15625 101.414062 C 101.566406 103.792969 101.976562 106.496094 103.414062 108.394531 C 104.207031 109.726562 105.648438 110.625 107.308594 110.625 C 109.828125 110.625 111.867188 108.585938 111.867188 106.070312 C 111.867188 103.554688 109.828125 101.515625 107.308594 101.515625 C 106.726562 101.515625 106.175781 101.632812 105.664062 101.832031 C 106.300781 99.480469 108.144531 97.386719 110.8125 96.027344 C 116.546875 93.09375 121.945312 97.195312 122.351562 103.214844 C 122.976562 112.628906 114.691406 122.601562 108.367188 128.640625 C 104.132812 132.671875 99.761719 137.09375 95.898438 141.917969 C 98.703125 137.839844 100.363281 132.46875 99.648438 127.515625 C 99.300781 125.113281 98.359375 122.722656 96.574219 121.035156 C 95.804688 120.304688 94.953125 119.703125 94.183594 118.945312 C 93.59375 118.363281 91.371094 117.058594 91.109375 116.4375 C 94.886719 125.421875 90.34375 136.808594 87.3125 145.460938 C 85.859375 149.578125 84.15625 153.589844 82.21875 157.488281 C 81.945312 158.011719 81.644531 158.535156 81.304688 159.074219 C 82.21875 152.464844 81.578125 145.632812 79.53125 139.285156 C 78.5 136.082031 77.105469 132.992188 75.347656 130.125 C 74.570312 128.859375 73.855469 127.597656 73.105469 126.328125 C 72.53125 125.359375 70.699219 123.925781 70.421875 122.988281 C 70.746094 124.089844 70.992188 125.203125 71.203125 126.332031 C 73.359375 137.863281 68.375 150.226562 65.25 161.140625 C 62.058594 172.292969 59.109375 184.609375 63.828125 195.785156 C 62.847656 195.785156 60.214844 192.707031 59.480469 192 C 58.050781 190.617188 56.710938 189.132812 55.664062 187.433594 C 53.296875 183.609375 53.011719 180.296875 52.632812 175.863281 C 49.265625 181.289062 49.753906 189.476562 51.046875 195.460938 C 52.421875 201.816406 55.351562 207.832031 59.542969 212.808594 C 63.507812 217.511719 68.636719 220.835938 73.816406 224.058594 C 75.992188 225.410156 78.015625 226.859375 80.023438 228.363281 C 76.917969 227.46875 73.644531 227.148438 70.222656 227.671875 C 59.78125 229.289062 52.945312 239.175781 53.503906 249.464844 C 54.078125 259.859375 61.398438 269.257812 72.71875 266.457031 C 82.570312 264.023438 85.65625 248.4375 75.40625 245.96875 C 75.300781 245.941406 75.183594 245.949219 75.070312 245.972656 C 74.820312 245.929688 74.570312 245.898438 74.308594 245.898438 C 71.792969 245.898438 69.753906 247.9375 69.753906 250.453125 C 69.753906 252.96875 71.792969 255.007812 74.308594 255.007812 C 76.222656 255.007812 77.855469 253.824219 78.527344 252.15625 C 79.75 256.058594 77.855469 260.730469 73.527344 262.625 C 66.933594 265.527344 60.320312 261.78125 58.058594 255.371094 C 54.078125 244.085938 60.691406 230.875 73.460938 230.773438 C 83.4375 230.695312 92.414062 238.859375 99.144531 245.429688 C 106.3125 252.429688 113.089844 259.597656 121.074219 265.664062 C 121.730469 266.164062 122.300781 266.488281 123.078125 266.246094 C 113.011719 253.429688 105.328125 245.550781 102.015625 241.230469 C 95.710938 233.003906 91.601562 224.839844 88.105469 215.085938 C 82.90625 200.582031 81.363281 184.46875 85.351562 169.46875 C 87.082031 162.960938 89.851562 156.703125 93.789062 150.925781 C 97.503906 145.476562 101.144531 140.113281 105.886719 135.558594 C 113.09375 128.613281 121.339844 120.878906 124.472656 111.015625 C 124.925781 109.59375 125.253906 108.175781 125.472656 106.714844 C 127.464844 99.265625 131.207031 90.820312 136.90625 87.238281 C 142.023438 84.035156 148.511719 86 149.5 92.367188 C 149.964844 95.324219 149.351562 98.042969 147.820312 99.941406 C 147.679688 99.410156 147.453125 98.894531 147.109375 98.421875 C 145.636719 96.382812 142.785156 95.929688 140.75 97.40625 C 138.714844 98.878906 138.257812 101.726562 139.734375 103.765625 C 140.710938 105.113281 142.28125 105.75 143.828125 105.613281 C 146.207031 105.664062 148.636719 104.410156 150.21875 102.53125 C 152.925781 99.339844 153.589844 94.359375 152.492188 90.402344 " fill-opacity="1" fill-rule="nonzero"/><path fill="#3d7ad5" d="M 280.8125 122.230469 C 280.953125 121.621094 281.535156 132.992188 283.324219 138.128906 C 284.746094 142.214844 286.691406 146.082031 286.871094 150.472656 C 286.878906 150.691406 286.527344 150.742188 286.484375 150.523438 C 285.417969 145.355469 282.347656 140.921875 280.976562 135.847656 C 279.75 131.308594 279.757812 126.796875 280.8125 122.230469 Z M 318.390625 197.546875 C 318.699219 196.980469 316.746094 204.570312 308.046875 214.875 C 301.75 222.335938 291.65625 224.457031 291.917969 224.363281 C 303.578125 220.105469 312.636719 208.085938 318.390625 197.546875 Z M 308.03125 182.054688 C 307.703125 191.21875 303.910156 200.390625 297.957031 207.304688 C 297.804688 207.484375 297.488281 207.246094 297.625 207.050781 C 303.601562 198.570312 307.445312 188.589844 305.886719 178.101562 C 304.371094 167.914062 300.496094 158.359375 300.480469 147.941406 C 300.476562 147.117188 308.449219 170.4375 308.03125 182.054688 Z M 298.152344 196.363281 C 298.0625 196.480469 302 189.46875 298.457031 167.847656 C 298.324219 167.03125 306.664062 184.914062 298.152344 196.363281 Z M 224.902344 102.53125 C 226.484375 104.410156 228.914062 105.664062 231.292969 105.613281 C 232.839844 105.75 234.410156 105.113281 235.386719 103.765625 C 236.863281 101.726562 236.40625 98.878906 234.371094 97.40625 C 232.335938 95.929688 229.484375 96.382812 228.007812 98.421875 C 227.667969 98.894531 227.441406 99.410156 227.300781 99.941406 C 225.769531 98.042969 225.15625 95.324219 225.621094 92.367188 C 226.613281 86 233.097656 84.035156 238.214844 87.238281 C 243.914062 90.820312 247.65625 99.265625 249.648438 106.714844 C 249.867188 108.175781 250.195312 109.59375 250.628906 110.96875 C 253.78125 120.878906 262.027344 128.613281 269.234375 135.558594 C 273.976562 140.113281 277.621094 145.476562 281.332031 150.925781 C 285.269531 156.703125 288.039062 162.960938 289.769531 169.46875 C 293.757812 184.46875 292.214844 200.582031 287.011719 215.085938 C 283.519531 224.839844 279.410156 233.003906 273.105469 241.230469 C 269.792969 245.550781 262.105469 253.429688 252.042969 266.246094 C 252.820312 266.488281 253.390625 266.164062 254.046875 265.664062 C 262.03125 259.597656 268.808594 252.429688 275.976562 245.429688 C 282.707031 238.859375 291.683594 230.695312 301.660156 230.773438 C 314.429688 230.875 321.042969 244.085938 317.0625 255.371094 C 314.800781 261.78125 308.1875 265.527344 301.59375 262.625 C 297.265625 260.730469 295.367188 256.058594 296.59375 252.15625 C 297.269531 253.824219 298.898438 255.007812 300.8125 255.007812 C 303.328125 255.007812 305.367188 252.96875 305.367188 250.453125 C 305.367188 247.9375 303.328125 245.898438 300.8125 245.898438 C 300.550781 245.898438 300.300781 245.929688 300.050781 245.972656 C 299.933594 245.949219 299.820312 245.941406 299.714844 245.96875 C 289.464844 248.4375 292.550781 264.023438 302.402344 266.457031 C 313.722656 269.257812 321.042969 259.859375 321.617188 249.464844 C 322.175781 239.175781 315.34375 229.289062 304.898438 227.671875 C 301.472656 227.148438 298.203125 227.46875 295.097656 228.363281 C 297.105469 226.859375 299.128906 225.410156 301.304688 224.058594 C 306.484375 220.835938 311.613281 217.511719 315.578125 212.808594 C 319.765625 207.832031 322.699219 201.816406 324.074219 195.460938 C 325.367188 189.476562 325.855469 181.289062 322.488281 175.863281 C 322.109375 180.296875 321.824219 183.609375 319.457031 187.433594 C 318.40625 189.132812 317.066406 190.617188 315.640625 192 C 314.90625 192.707031 312.273438 195.785156 311.292969 195.785156 C 316.011719 184.609375 313.0625 172.292969 309.871094 161.140625 C 306.746094 150.226562 301.761719 137.863281 303.917969 126.332031 C 304.128906 125.203125 304.371094 124.089844 304.699219 122.988281 C 304.421875 123.925781 302.589844 125.359375 302.015625 126.328125 C 301.265625 127.597656 300.550781 128.859375 299.773438 130.125 C 298.011719 132.992188 296.621094 136.082031 295.589844 139.285156 C 293.542969 145.632812 292.902344 152.464844 293.816406 159.074219 C 293.476562 158.535156 293.171875 158.011719 292.902344 157.488281 C 290.964844 153.589844 289.257812 149.578125 287.808594 145.460938 C 284.777344 136.808594 280.234375 125.421875 284.007812 116.4375 C 283.75 117.058594 281.527344 118.363281 280.9375 118.945312 C 280.167969 119.703125 279.316406 120.304688 278.546875 121.035156 C 276.761719 122.722656 275.820312 125.113281 275.472656 127.515625 C 274.757812 132.46875 276.417969 137.839844 279.222656 141.917969 C 275.359375 137.09375 270.988281 132.671875 266.753906 128.640625 C 260.429688 122.601562 252.144531 112.628906 252.769531 103.214844 C 253.171875 97.195312 258.570312 93.09375 264.308594 96.027344 C 266.976562 97.386719 268.816406 99.480469 269.457031 101.832031 C 268.945312 101.632812 268.390625 101.515625 267.808594 101.515625 C 265.292969 101.515625 263.253906 103.554688 263.253906 106.070312 C 263.253906 108.585938 265.292969 110.625 267.808594 110.625 C 269.472656 110.625 270.910156 109.726562 271.707031 108.394531 C 273.144531 106.496094 273.554688 103.792969 272.964844 101.414062 C 271.96875 97.34375 268.324219 93.886719 264.476562 92.453125 C 257.929688 90.011719 252.578125 93.601562 250.445312 99.03125 C 248.730469 94.316406 246.277344 89.949219 242.539062 86.414062 C 236.109375 80.339844 225.25 80.949219 222.628906 90.402344 C 221.53125 94.359375 222.195312 99.339844 224.902344 102.53125 " fill-opacity="1" fill-rule="nonzero"/><path fill="#3d7ad5" d="M 95.535156 125.417969 C 95.480469 125.007812 95.097656 124.824219 94.792969 124.894531 C 95.238281 128.066406 95.164062 131.21875 94.492188 134.378906 C 94.613281 134.328125 94.726562 134.246094 94.816406 134.109375 C 96.328125 131.789062 95.871094 128.015625 95.535156 125.417969 " fill-opacity="1" fill-rule="nonzero"/><path fill="#3d7ad5" d="M 102.734375 122.886719 C 102.734375 121.761719 103.648438 120.851562 104.773438 120.851562 C 105.894531 120.851562 106.808594 121.761719 106.808594 122.886719 C 106.808594 124.011719 105.894531 124.921875 104.773438 124.921875 C 103.648438 124.921875 102.734375 124.011719 102.734375 122.886719 " fill-opacity="1" fill-rule="nonzero"/><path fill="#3d7ad5" d="M 67.550781 238.375 C 67.550781 237.25 68.460938 236.339844 69.585938 236.339844 C 70.710938 236.339844 71.621094 237.25 71.621094 238.375 C 71.621094 239.496094 70.710938 240.410156 69.585938 240.410156 C 68.460938 240.410156 67.550781 239.496094 67.550781 238.375 " fill-opacity="1" fill-rule="nonzero"/><path fill="#3d7ad5" d="M 61.097656 246.011719 C 61.097656 244.886719 62.007812 243.976562 63.132812 243.976562 C 64.257812 243.976562 65.167969 244.886719 65.167969 246.011719 C 65.167969 247.136719 64.257812 248.046875 63.132812 248.046875 C 62.007812 248.046875 61.097656 247.136719 61.097656 246.011719 " fill-opacity="1" fill-rule="nonzero"/><path fill="#3d7ad5" d="M 63.851562 256.863281 C 63.851562 255.738281 64.761719 254.828125 65.886719 254.828125 C 67.011719 254.828125 67.925781 255.738281 67.925781 256.863281 C 67.925781 257.988281 67.011719 258.898438 65.886719 258.898438 C 64.761719 258.898438 63.851562 257.988281 63.851562 256.863281 " fill-opacity="1" fill-rule="nonzero"/><path fill="#3d7ad5" d="M 78.558594 238.375 C 78.558594 237.25 79.46875 236.339844 80.59375 236.339844 C 81.71875 236.339844 82.628906 237.25 82.628906 238.375 C 82.628906 239.496094 81.71875 240.410156 80.59375 240.410156 C 79.46875 240.410156 78.558594 239.496094 78.558594 238.375 " fill-opacity="1" fill-rule="nonzero"/><path fill="#3d7ad5" d="M 87.300781 246.011719 C 87.300781 244.886719 88.210938 243.976562 89.335938 243.976562 C 90.460938 243.976562 91.371094 244.886719 91.371094 246.011719 C 91.371094 247.136719 90.460938 248.046875 89.335938 248.046875 C 88.210938 248.046875 87.300781 247.136719 87.300781 246.011719 " fill-opacity="1" fill-rule="nonzero"/><path fill="#3d7ad5" d="M 93.839844 253.578125 C 93.839844 252.453125 94.75 251.542969 95.875 251.542969 C 97 251.542969 97.910156 252.453125 97.910156 253.578125 C 97.910156 254.703125 97 255.613281 95.875 255.613281 C 94.75 255.613281 93.839844 254.703125 93.839844 253.578125 " fill-opacity="1" fill-rule="nonzero"/><path fill="#3d7ad5" d="M 102.734375 260.933594 C 102.734375 259.8125 103.648438 258.898438 104.773438 258.898438 C 105.894531 258.898438 106.808594 259.8125 106.808594 260.933594 C 106.808594 262.058594 105.894531 262.972656 104.773438 262.972656 C 103.648438 262.972656 102.734375 262.058594 102.734375 260.933594 " fill-opacity="1" fill-rule="nonzero"/><path fill="#3d7ad5" d="M 109.0625 116.054688 C 109.0625 114.929688 109.972656 114.019531 111.097656 114.019531 C 112.222656 114.019531 113.132812 114.929688 113.132812 116.054688 C 113.132812 117.179688 112.222656 118.089844 111.097656 118.089844 C 109.972656 118.089844 109.0625 117.179688 109.0625 116.054688 " fill-opacity="1" fill-rule="nonzero"/><g clip-path="url(#24614e20ca)"><path fill="#3d7ad5" d="M 65.886719 222.59375 C 66.011719 222.972656 58.164062 230.941406 50.066406 229.425781 C 41.972656 227.90625 44.375 217.785156 37.542969 216.265625 C 37.542969 216.265625 44.503906 212.847656 51.714844 219.808594 C 57.832031 225.710938 65.886719 222.59375 65.886719 222.59375 " fill-opacity="1" fill-rule="nonzero"/></g><g clip-path="url(#e17d505c48)"><path fill="#3d7ad5" d="M 187.351562 324.539062 C 178.226562 307.855469 187.351562 307.621094 187.351562 307.621094 C 187.351562 307.621094 196.480469 307.855469 187.351562 324.539062 Z M 201.492188 314.199219 C 199.972656 311.246094 198.742188 308.042969 196.378906 305.710938 C 194.015625 303.382812 190.054688 301.882812 187.351562 303.804688 C 184.652344 301.882812 180.691406 303.382812 178.328125 305.710938 C 175.964844 308.042969 174.734375 311.246094 173.214844 314.199219 C 171.699219 317.152344 169.625 320.121094 166.484375 321.183594 C 170.769531 322.753906 175.832031 321.957031 179.441406 319.160156 C 180.910156 323.964844 183.691406 327.492188 187.351562 330.933594 C 191.015625 327.492188 193.796875 323.964844 195.265625 319.160156 C 198.875 321.957031 203.9375 322.753906 208.222656 321.183594 C 205.085938 320.121094 203.011719 317.152344 201.492188 314.199219 " fill-opacity="1" fill-rule="nonzero"/></g><path fill="#3d7ad5" d="M 121.746094 284.402344 C 96.726562 277.878906 82.476562 292.476562 82.847656 291.894531 C 89.410156 281.59375 105.515625 279.527344 116.554688 280.789062 C 133.601562 282.734375 148.945312 291.792969 166.347656 291.585938 C 167.476562 291.570312 164.707031 295.597656 121.746094 284.402344 Z M 135.160156 295.289062 C 121.175781 294.269531 113.085938 301.65625 113.257812 301.429688 C 123.738281 287.660156 138.066406 294.078125 155.71875 295.960938 C 156.695312 296.0625 151.226562 296.464844 135.160156 295.289062 Z M 95.503906 275.070312 C 104.539062 270.890625 115.601562 272.84375 124.785156 275.546875 C 125.695312 275.816406 114.480469 275.132812 109.429688 274.890625 C 104.78125 274.671875 95.089844 275.265625 95.503906 275.070312 Z M 192.765625 267.027344 C 189.539062 262.746094 184.605469 260.121094 179.253906 259.824219 C 175.414062 259.609375 168.8125 260.867188 167.265625 266.101562 C 167.144531 266.511719 167.085938 267.300781 167.125 268.074219 C 167.121094 268.140625 167.105469 268.203125 167.105469 268.269531 C 167.105469 270.785156 169.144531 272.824219 171.660156 272.824219 C 174.175781 272.824219 176.214844 270.785156 176.214844 268.269531 C 176.214844 265.753906 174.175781 263.714844 171.660156 263.714844 C 171.449219 263.714844 171.25 263.746094 171.046875 263.773438 C 175.027344 260.320312 182.941406 261.640625 186.363281 265.234375 C 188.367188 267.34375 189.320312 271.097656 189.105469 273.945312 C 188.847656 277.382812 186.9375 280.410156 184.464844 282.71875 C 178.324219 288.453125 171.121094 289.28125 163.125 287.746094 C 150.117188 285.214844 138.878906 277.84375 126.96875 272.460938 C 122.113281 270.269531 117.035156 268.109375 111.6875 267.5 C 106.1875 266.875 100.398438 267.820312 95.035156 269.070312 C 90.019531 270.238281 85.089844 272.015625 80.695312 274.726562 C 77.011719 276.996094 71.117188 281.160156 70.320312 285.765625 C 76.804688 282.457031 84.539062 279.359375 91.949219 279.359375 C 89.199219 279.386719 84.789062 283.035156 82.667969 284.605469 C 79.710938 286.792969 77.035156 289.351562 74.699219 292.1875 C 70.140625 297.722656 65.644531 305 65.78125 312.410156 C 65.761719 311.363281 77.144531 299.582031 101.117188 293.554688 C 103.476562 292.960938 105.933594 292.820312 108.363281 292.675781 C 110 292.582031 114.128906 293.394531 115.464844 292.671875 C 111.078125 295.152344 107.453125 298.8125 105.242188 303.417969 C 102.972656 308.15625 101.285156 316.171875 104.6875 320.796875 C 106.765625 316.929688 108.488281 312.738281 111.84375 309.78125 C 114.675781 307.289062 118.1875 305.714844 121.796875 304.710938 C 129.164062 302.648438 136.902344 302.808594 144.480469 302.808594 C 158.316406 302.910156 174.125 304.210938 186.035156 295.742188 C 194.910156 289.417969 199.9375 276.542969 192.765625 267.027344 " fill-opacity="1" fill-rule="nonzero"/><path fill="#3d7ad5" d="M 171.917969 307.085938 C 171.917969 307.085938 161.792969 305.089844 150.578125 313.484375 C 142.308594 319.679688 133.71875 317.328125 133.71875 317.328125 C 133.71875 317.328125 147.625 327.863281 158.046875 318.449219 C 167.996094 309.464844 171.917969 307.085938 171.917969 307.085938 " fill-opacity="1" fill-rule="nonzero"/><path fill="#3d7ad5" d="M 205.773438 108.503906 C 206.347656 107.796875 207.617188 108.535156 208.070312 109.03125 C 208.828125 109.855469 209.027344 111.019531 208.59375 112.039062 C 208.34375 112.640625 207.425781 112.613281 207.40625 111.878906 C 207.378906 111.003906 207.292969 110.160156 206.601562 109.542969 C 206.398438 109.359375 205.449219 108.902344 205.773438 108.503906 Z M 201.808594 111.5 C 201.808594 114.015625 203.851562 116.054688 206.367188 116.054688 C 208.878906 116.054688 210.921875 114.015625 210.921875 111.5 C 210.921875 108.984375 208.878906 106.945312 206.367188 106.945312 C 203.851562 106.945312 201.808594 108.984375 201.808594 111.5 " fill-opacity="1" fill-rule="nonzero"/><path fill="#3d7ad5" d="M 223.46875 113.972656 C 224.367188 113.832031 225.265625 114.5 225.773438 115.199219 C 226.410156 116.074219 226.535156 117.046875 226.367188 118.09375 C 226.28125 118.613281 225.4375 118.59375 225.335938 118.09375 C 225.1875 117.378906 225.003906 116.617188 224.621094 115.988281 C 224.253906 115.390625 223.644531 115.085938 223.238281 114.542969 C 223.097656 114.355469 223.238281 114.007812 223.46875 113.972656 Z M 219.617188 118.175781 C 220.238281 120.613281 222.714844 122.089844 225.152344 121.46875 C 227.59375 120.851562 229.066406 118.371094 228.449219 115.933594 C 227.828125 113.496094 225.351562 112.019531 222.910156 112.640625 C 220.472656 113.257812 219 115.738281 219.617188 118.175781 " fill-opacity="1" fill-rule="nonzero"/><path fill="#3d7ad5" d="M 239.789062 122.695312 C 240.695312 122.46875 241.632812 123.222656 242.105469 123.933594 C 242.703125 124.832031 242.847656 125.804688 242.472656 126.816406 C 242.289062 127.320312 241.441406 127.292969 241.476562 126.683594 C 241.511719 126.023438 241.367188 125.265625 241.023438 124.691406 C 240.660156 124.089844 240.074219 123.847656 239.617188 123.355469 C 239.417969 123.144531 239.492188 122.769531 239.789062 122.695312 Z M 235.472656 126.164062 C 235.472656 128.679688 237.511719 130.722656 240.027344 130.722656 C 242.542969 130.722656 244.582031 128.679688 244.582031 126.164062 C 244.582031 123.648438 242.542969 121.609375 240.027344 121.609375 C 237.511719 121.609375 235.472656 123.648438 235.472656 126.164062 " fill-opacity="1" fill-rule="nonzero"/><path fill="#3d7ad5" d="M 252.996094 134.152344 C 253.808594 133.695312 254.902344 134.125 255.53125 134.71875 C 256.308594 135.460938 256.59375 136.433594 256.429688 137.476562 C 256.332031 138.082031 255.378906 138.035156 255.246094 137.476562 C 255.101562 136.867188 254.898438 136.246094 254.480469 135.765625 C 254.054688 135.277344 253.511719 135.128906 252.996094 134.777344 C 252.78125 134.628906 252.75 134.292969 252.996094 134.152344 Z M 249.105469 136.921875 C 249.105469 139.4375 251.144531 141.476562 253.660156 141.476562 C 256.175781 141.476562 258.214844 139.4375 258.214844 136.921875 C 258.214844 134.40625 256.175781 132.367188 253.660156 132.367188 C 251.144531 132.367188 249.105469 134.40625 249.105469 136.921875 " fill-opacity="1" fill-rule="nonzero"/><path fill="#3d7ad5" d="M 264.75 146.453125 C 265.359375 146.167969 266.089844 146.585938 266.546875 146.988281 C 267.277344 147.632812 267.503906 148.453125 267.285156 149.390625 C 267.160156 149.921875 266.441406 149.746094 266.390625 149.269531 C 266.273438 148.113281 265.605469 147.683594 264.75 147.101562 C 264.539062 146.957031 264.472656 146.582031 264.75 146.453125 Z M 259.921875 149.699219 C 259.921875 152.214844 261.964844 154.257812 264.476562 154.257812 C 266.996094 154.257812 269.035156 152.214844 269.035156 149.699219 C 269.035156 147.183594 266.996094 145.144531 264.476562 145.144531 C 261.964844 145.144531 259.921875 147.183594 259.921875 149.699219 " fill-opacity="1" fill-rule="nonzero"/><path fill="#3d7ad5" d="M 274.058594 162.445312 C 275.609375 162.378906 276.539062 164.050781 276.378906 165.402344 C 276.328125 165.828125 275.648438 166.023438 275.550781 165.511719 C 275.449219 165.003906 275.261719 164.425781 274.964844 163.988281 C 274.671875 163.550781 274.226562 163.308594 273.847656 162.953125 C 273.652344 162.769531 273.8125 162.457031 274.058594 162.445312 Z M 269.035156 165.644531 C 269.035156 168.160156 271.074219 170.199219 273.589844 170.199219 C 276.105469 170.199219 278.144531 168.160156 278.144531 165.644531 C 278.144531 163.128906 276.105469 161.085938 273.589844 161.085938 C 271.074219 161.085938 269.035156 163.128906 269.035156 165.644531 " fill-opacity="1" fill-rule="nonzero"/><path fill="#3d7ad5" d="M 279.5625 181.476562 C 280.375 181.386719 281.214844 182.082031 281.648438 182.714844 C 282.167969 183.476562 282.359375 184.421875 282.019531 185.292969 C 281.835938 185.769531 281.019531 185.914062 280.902344 185.292969 C 280.78125 184.667969 280.734375 184 280.394531 183.449219 C 280.070312 182.921875 279.519531 182.636719 279.1875 182.132812 C 278.984375 181.828125 279.261719 181.511719 279.5625 181.476562 Z M 274.777344 184.914062 C 274.777344 187.429688 276.816406 189.46875 279.332031 189.46875 C 281.847656 189.46875 283.886719 187.429688 283.886719 184.914062 C 283.886719 182.398438 281.847656 180.359375 279.332031 180.359375 C 276.816406 180.359375 274.777344 182.398438 274.777344 184.914062 " fill-opacity="1" fill-rule="nonzero"/><path fill="#3d7ad5" d="M 280.953125 200.238281 C 282.910156 199.46875 284.242188 201.875 283.878906 203.503906 C 283.761719 204.035156 282.972656 204 282.835938 203.503906 C 282.6875 202.960938 282.582031 202.351562 282.214844 201.910156 C 281.847656 201.46875 281.332031 201.355469 280.839844 201.117188 C 280.425781 200.917969 280.605469 200.375 280.953125 200.238281 Z M 276.546875 203.226562 C 276.546875 205.742188 278.585938 207.78125 281.101562 207.78125 C 283.617188 207.78125 285.660156 205.742188 285.660156 203.226562 C 285.660156 200.710938 283.617188 198.671875 281.101562 198.671875 C 278.585938 198.671875 276.546875 200.710938 276.546875 203.226562 " fill-opacity="1" fill-rule="nonzero"/><path fill="#3d7ad5" d="M 272.257812 122.886719 C 272.257812 121.761719 271.34375 120.851562 270.222656 120.851562 C 269.097656 120.851562 268.183594 121.761719 268.183594 122.886719 C 268.183594 124.011719 269.097656 124.921875 270.222656 124.921875 C 271.34375 124.921875 272.257812 124.011719 272.257812 122.886719 " fill-opacity="1" fill-rule="nonzero"/><path fill="#3d7ad5" d="M 307.441406 238.375 C 307.441406 237.25 306.53125 236.339844 305.40625 236.339844 C 304.28125 236.339844 303.371094 237.25 303.371094 238.375 C 303.371094 239.496094 304.28125 240.410156 305.40625 240.410156 C 306.53125 240.410156 307.441406 239.496094 307.441406 238.375 " fill-opacity="1" fill-rule="nonzero"/><path fill="#3d7ad5" d="M 313.894531 246.011719 C 313.894531 244.886719 312.984375 243.976562 311.859375 243.976562 C 310.734375 243.976562 309.824219 244.886719 309.824219 246.011719 C 309.824219 247.136719 310.734375 248.046875 311.859375 248.046875 C 312.984375 248.046875 313.894531 247.136719 313.894531 246.011719 " fill-opacity="1" fill-rule="nonzero"/><path fill="#3d7ad5" d="M 311.140625 256.863281 C 311.140625 255.738281 310.230469 254.828125 309.105469 254.828125 C 307.980469 254.828125 307.070312 255.738281 307.070312 256.863281 C 307.070312 257.988281 307.980469 258.898438 309.105469 258.898438 C 310.230469 258.898438 311.140625 257.988281 311.140625 256.863281 " fill-opacity="1" fill-rule="nonzero"/><path fill="#3d7ad5" d="M 296.433594 238.375 C 296.433594 237.25 295.523438 236.339844 294.398438 236.339844 C 293.273438 236.339844 292.363281 237.25 292.363281 238.375 C 292.363281 239.496094 293.273438 240.410156 294.398438 240.410156 C 295.523438 240.410156 296.433594 239.496094 296.433594 238.375 " fill-opacity="1" fill-rule="nonzero"/><path fill="#3d7ad5" d="M 287.691406 246.011719 C 287.691406 244.886719 286.78125 243.976562 285.660156 243.976562 C 284.535156 243.976562 283.621094 244.886719 283.621094 246.011719 C 283.621094 247.136719 284.535156 248.046875 285.660156 248.046875 C 286.78125 248.046875 287.691406 247.136719 287.691406 246.011719 " fill-opacity="1" fill-rule="nonzero"/><path fill="#3d7ad5" d="M 281.152344 253.578125 C 281.152344 252.453125 280.242188 251.542969 279.117188 251.542969 C 277.996094 251.542969 277.082031 252.453125 277.082031 253.578125 C 277.082031 254.703125 277.996094 255.613281 279.117188 255.613281 C 280.242188 255.613281 281.152344 254.703125 281.152344 253.578125 " fill-opacity="1" fill-rule="nonzero"/><path fill="#3d7ad5" d="M 272.257812 260.933594 C 272.257812 259.8125 271.34375 258.898438 270.222656 258.898438 C 269.097656 258.898438 268.183594 259.8125 268.183594 260.933594 C 268.183594 262.058594 269.097656 262.972656 270.222656 262.972656 C 271.34375 262.972656 272.257812 262.058594 272.257812 260.933594 " fill-opacity="1" fill-rule="nonzero"/><path fill="#3d7ad5" d="M 265.929688 116.054688 C 265.929688 114.929688 265.019531 114.019531 263.894531 114.019531 C 262.769531 114.019531 261.859375 114.929688 261.859375 116.054688 C 261.859375 117.179688 262.769531 118.089844 263.894531 118.089844 C 265.019531 118.089844 265.929688 117.179688 265.929688 116.054688 " fill-opacity="1" fill-rule="nonzero"/><g clip-path="url(#4fbbc7497d)"><path fill="#3d7ad5" d="M 309.105469 222.59375 C 308.980469 222.972656 316.832031 230.941406 324.925781 229.425781 C 333.019531 227.90625 330.617188 217.785156 337.449219 216.265625 C 337.449219 216.265625 330.488281 212.847656 323.277344 219.808594 C 317.160156 225.710938 309.105469 222.59375 309.105469 222.59375 " fill-opacity="1" fill-rule="nonzero"/></g><path fill="#3d7ad5" d="M 207.945312 291.585938 C 225.34375 291.792969 240.6875 282.734375 257.738281 280.789062 C 268.777344 279.527344 284.882812 281.59375 291.441406 291.894531 C 291.8125 292.476562 277.566406 277.878906 252.546875 284.402344 C 209.585938 295.597656 206.8125 291.570312 207.945312 291.585938 Z M 218.574219 295.960938 C 236.222656 294.078125 250.550781 287.660156 261.03125 301.429688 C 261.203125 301.65625 253.113281 294.269531 239.132812 295.289062 C 223.066406 296.464844 217.597656 296.0625 218.574219 295.960938 Z M 264.863281 274.890625 C 259.808594 275.132812 248.597656 275.816406 249.507812 275.546875 C 258.691406 272.84375 269.75 270.890625 278.785156 275.070312 C 279.203125 275.265625 269.507812 274.671875 264.863281 274.890625 Z M 188.257812 295.742188 C 200.167969 304.210938 215.972656 302.910156 229.808594 302.808594 C 237.386719 302.808594 245.128906 302.648438 252.496094 304.710938 C 256.101562 305.714844 259.617188 307.289062 262.449219 309.78125 C 265.804688 312.738281 267.523438 316.929688 269.601562 320.796875 C 273.003906 316.171875 271.320312 308.15625 269.046875 303.417969 C 266.839844 298.8125 263.210938 295.152344 258.824219 292.671875 C 260.164062 293.394531 264.289062 292.582031 265.925781 292.675781 C 268.355469 292.820312 270.8125 292.960938 273.175781 293.554688 C 297.148438 299.582031 308.53125 311.363281 308.511719 312.410156 C 308.644531 305 304.148438 297.722656 299.59375 292.1875 C 297.257812 289.351562 294.578125 286.792969 291.625 284.605469 C 289.5 283.035156 285.089844 279.386719 282.34375 279.359375 C 289.75 279.359375 297.488281 282.457031 303.96875 285.765625 C 303.175781 281.160156 297.277344 276.996094 293.59375 274.726562 C 289.199219 272.015625 284.269531 270.238281 279.253906 269.070312 C 273.890625 267.820312 268.105469 266.875 262.605469 267.5 C 257.257812 268.109375 252.179688 270.269531 247.320312 272.460938 C 235.410156 277.84375 224.171875 285.214844 211.167969 287.746094 C 203.171875 289.28125 195.964844 288.453125 189.824219 282.71875 C 187.351562 280.410156 185.445312 277.382812 185.183594 273.945312 C 184.972656 271.097656 185.925781 267.34375 187.929688 265.234375 C 191.347656 261.640625 199.265625 260.320312 203.242188 263.773438 C 203.039062 263.746094 202.839844 263.714844 202.628906 263.714844 C 200.113281 263.714844 198.074219 265.753906 198.074219 268.269531 C 198.074219 270.785156 200.113281 272.824219 202.628906 272.824219 C 205.144531 272.824219 207.183594 270.785156 207.183594 268.269531 C 207.183594 268.203125 207.167969 268.140625 207.164062 268.074219 C 207.207031 267.300781 207.148438 266.511719 207.027344 266.101562 C 205.476562 260.867188 198.878906 259.609375 195.035156 259.824219 C 189.6875 260.121094 184.75 262.746094 181.523438 267.027344 C 174.355469 276.542969 179.382812 289.417969 188.257812 295.742188 " fill-opacity="1" fill-rule="nonzero"/><path fill="#3d7ad5" d="M 203.074219 307.085938 C 203.074219 307.085938 213.199219 305.089844 224.414062 313.484375 C 232.683594 319.679688 241.273438 317.328125 241.273438 317.328125 C 241.273438 317.328125 227.371094 327.863281 216.945312 318.449219 C 206.996094 309.464844 203.074219 307.085938 203.074219 307.085938 " fill-opacity="1" fill-rule="nonzero"/><path fill="#3d7ad5" d="M 187.152344 120.003906 C 141.265625 120.003906 103.929688 157.335938 103.929688 203.222656 C 103.929688 244.910156 134.734375 279.53125 174.785156 285.519531 C 174.867188 285.539062 174.953125 285.5625 175.046875 285.5625 C 175.519531 285.5625 175.898438 285.183594 175.898438 284.710938 C 175.898438 284.261719 175.550781 283.90625 175.113281 283.871094 C 135.941406 277.957031 105.617188 244.035156 105.617188 203.222656 C 105.617188 158.265625 142.191406 121.6875 187.152344 121.6875 C 232.09375 121.6875 268.667969 158.265625 268.667969 203.222656 C 268.667969 244.257812 238.554688 278.246094 199.0625 283.871094 C 198.53125 283.855469 198.148438 284.238281 198.148438 284.710938 C 198.148438 285.183594 198.53125 285.5625 199 285.5625 C 239.355469 279.84375 270.355469 245.132812 270.355469 203.222656 C 270.355469 157.335938 233.039062 120.003906 187.152344 120.003906 " fill-opacity="1" fill-rule="nonzero"/><g clip-path="url(#8678e9d25e)"><path fill="#3d7ad5" d="M 205.765625 90.589844 C 204.992188 90.589844 204.355469 89.964844 204.355469 89.179688 C 204.355469 88.402344 204.992188 87.769531 205.765625 87.769531 C 206.554688 87.769531 207.175781 88.402344 207.175781 89.179688 C 207.175781 89.964844 206.554688 90.589844 205.765625 90.589844 Z M 199.394531 90.589844 C 198.621094 90.589844 197.984375 89.964844 197.984375 89.179688 C 197.984375 88.402344 198.621094 87.769531 199.394531 87.769531 C 200.179688 87.769531 200.804688 88.402344 200.804688 89.179688 C 200.804688 89.964844 200.179688 90.589844 199.394531 90.589844 Z M 193.019531 90.589844 C 192.246094 90.589844 191.613281 89.964844 191.613281 89.179688 C 191.613281 88.402344 192.246094 87.769531 193.019531 87.769531 C 193.792969 87.769531 194.433594 88.402344 194.433594 89.179688 C 194.433594 89.964844 193.792969 90.589844 193.019531 90.589844 Z M 186.734375 90.574219 C 185.996094 90.523438 185.410156 89.941406 185.410156 89.179688 C 185.410156 88.429688 185.996094 87.835938 186.734375 87.785156 C 187.472656 87.835938 188.058594 88.429688 188.058594 89.179688 C 188.058594 89.941406 187.472656 90.523438 186.734375 90.574219 Z M 180.445312 90.589844 C 179.675781 90.589844 179.039062 89.964844 179.039062 89.179688 C 179.039062 88.402344 179.675781 87.769531 180.445312 87.769531 C 181.222656 87.769531 181.855469 88.402344 181.855469 89.179688 C 181.855469 89.964844 181.222656 90.589844 180.445312 90.589844 Z M 174.074219 90.589844 C 173.289062 90.589844 172.664062 89.964844 172.664062 89.179688 C 172.664062 88.402344 173.289062 87.769531 174.074219 87.769531 C 174.851562 87.769531 175.484375 88.402344 175.484375 89.179688 C 175.484375 89.964844 174.851562 90.589844 174.074219 90.589844 Z M 167.703125 90.589844 C 166.914062 90.589844 166.292969 89.964844 166.292969 89.179688 C 166.292969 88.402344 166.914062 87.769531 167.703125 87.769531 C 168.476562 87.769531 169.113281 88.402344 169.113281 89.179688 C 169.113281 89.964844 168.476562 90.589844 167.703125 90.589844 Z M 203.734375 70.019531 C 203.292969 71.402344 203.386719 72.894531 203.914062 74.25 C 204.796875 76.515625 205.75 80.691406 202.253906 83.082031 C 197.277344 86.511719 192.441406 82.074219 191.527344 77.027344 C 190.589844 71.886719 191.832031 68.15625 195.882812 66.910156 C 199.917969 65.667969 186.652344 44.0625 186.652344 44.0625 C 186.652344 44.0625 173.550781 65.667969 177.585938 66.910156 C 181.636719 68.15625 182.878906 71.886719 181.941406 77.027344 C 181.027344 82.074219 176.191406 86.511719 171.214844 83.082031 C 167.71875 80.691406 168.671875 76.515625 169.554688 74.25 C 170.082031 72.894531 170.179688 71.402344 169.734375 70.019531 C 166.347656 59.476562 150.535156 59.613281 150.535156 59.613281 C 165.933594 80.914062 165.769531 93.035156 165.769531 93.035156 L 207.699219 93.035156 C 207.699219 93.035156 207.535156 80.914062 222.933594 59.613281 C 222.933594 59.613281 207.121094 59.476562 203.734375 70.019531 " fill-opacity="1" fill-rule="nonzero"/></g><path fill="#3d7ad5" d="M 205.285156 95.996094 L 168.1875 95.996094 C 166.941406 95.996094 165.929688 97.003906 165.929688 98.25 C 165.929688 99.496094 166.941406 100.507812 168.1875 100.507812 L 205.285156 100.507812 C 206.527344 100.507812 207.539062 99.496094 207.539062 98.25 C 207.539062 97.003906 206.527344 95.996094 205.285156 95.996094 " fill-opacity="1" fill-rule="nonzero"/><g mask="url(#9ba6d95bc9)"><g transform="matrix(1, 0, 0, 1, 118, 134)"><g clip-path="url(#179fea667e)"><g clip-path="url(#af66ebe38d)"><path fill="#ffb632" d="M 69.492188 139.910156 C 69.1875 139.910156 68.941406 139.664062 68.941406 139.359375 L 68.941406 1.652344 C 68.941406 1.351562 69.1875 1.101562 69.492188 1.101562 C 69.796875 1.101562 70.042969 1.351562 70.042969 1.652344 L 70.042969 139.359375 C 70.042969 139.664062 69.796875 139.910156 69.492188 139.910156 Z M 69.492188 139.910156 " fill-opacity="1" fill-rule="nonzero"/></g><path fill="#ffb632" d="M 81.445312 138.863281 C 81.183594 138.863281 80.953125 138.675781 80.90625 138.40625 L 56.992188 2.796875 C 56.941406 2.496094 57.140625 2.210938 57.441406 2.15625 C 57.738281 2.105469 58.023438 2.304688 58.078125 2.605469 L 81.988281 138.214844 C 82.042969 138.515625 81.84375 138.800781 81.542969 138.855469 C 81.511719 138.859375 81.480469 138.863281 81.445312 138.863281 Z M 81.445312 138.863281 " fill-opacity="1" fill-rule="nonzero"/><path fill="#ffb632" d="M 81.445312 138.863281 C 81.183594 138.863281 80.953125 138.675781 80.90625 138.40625 L 56.992188 2.796875 C 56.941406 2.496094 57.140625 2.210938 57.441406 2.15625 C 57.738281 2.105469 58.023438 2.304688 58.078125 2.605469 L 81.988281 138.214844 C 82.042969 138.515625 81.84375 138.800781 81.542969 138.855469 C 81.511719 138.859375 81.480469 138.863281 81.445312 138.863281 Z M 81.445312 138.863281 " fill-opacity="1" fill-rule="nonzero"/><path fill="#ffb632" d="M 93.039062 135.757812 C 92.816406 135.757812 92.605469 135.617188 92.523438 135.394531 L 45.425781 5.996094 C 45.320312 5.707031 45.46875 5.394531 45.753906 5.289062 C 46.039062 5.183594 46.355469 5.332031 46.460938 5.617188 L 93.558594 135.015625 C 93.660156 135.304688 93.515625 135.621094 93.230469 135.722656 C 93.167969 135.746094 93.101562 135.757812 93.039062 135.757812 Z M 93.039062 135.757812 " fill-opacity="1" fill-rule="nonzero"/><path fill="#ffb632" d="M 93.039062 135.757812 C 92.816406 135.757812 92.605469 135.617188 92.523438 135.394531 L 45.425781 5.996094 C 45.320312 5.707031 45.46875 5.394531 45.753906 5.289062 C 46.039062 5.183594 46.355469 5.332031 46.460938 5.617188 L 93.558594 135.015625 C 93.660156 135.304688 93.515625 135.621094 93.230469 135.722656 C 93.167969 135.746094 93.101562 135.757812 93.039062 135.757812 Z M 93.039062 135.757812 " fill-opacity="1" fill-rule="nonzero"/><path fill="#ffb632" d="M 103.917969 130.683594 C 103.726562 130.683594 103.542969 130.585938 103.441406 130.410156 L 34.589844 11.152344 C 34.4375 10.890625 34.527344 10.554688 34.789062 10.402344 C 35.054688 10.25 35.390625 10.339844 35.542969 10.601562 L 104.394531 129.859375 C 104.546875 130.121094 104.457031 130.457031 104.191406 130.609375 C 104.105469 130.660156 104.011719 130.683594 103.917969 130.683594 Z M 103.917969 130.683594 " fill-opacity="1" fill-rule="nonzero"/><path fill="#ffb632" d="M 103.917969 130.683594 C 103.726562 130.683594 103.542969 130.585938 103.441406 130.410156 L 34.589844 11.152344 C 34.4375 10.890625 34.527344 10.554688 34.789062 10.402344 C 35.054688 10.25 35.390625 10.339844 35.542969 10.601562 L 104.394531 129.859375 C 104.546875 130.121094 104.457031 130.457031 104.191406 130.609375 C 104.105469 130.660156 104.011719 130.683594 103.917969 130.683594 Z M 103.917969 130.683594 " fill-opacity="1" fill-rule="nonzero"/><path fill="#ffb632" d="M 113.75 123.800781 C 113.59375 123.800781 113.4375 123.734375 113.328125 123.605469 L 24.8125 18.117188 C 24.617188 17.882812 24.648438 17.535156 24.878906 17.339844 C 25.113281 17.144531 25.460938 17.175781 25.65625 17.40625 L 114.171875 122.894531 C 114.367188 123.128906 114.335938 123.476562 114.101562 123.671875 C 114 123.757812 113.875 123.800781 113.75 123.800781 Z M 113.75 123.800781 " fill-opacity="1" fill-rule="nonzero"/><path fill="#ffb632" d="M 113.75 123.800781 C 113.59375 123.800781 113.4375 123.734375 113.328125 123.605469 L 24.8125 18.117188 C 24.617188 17.882812 24.648438 17.535156 24.878906 17.339844 C 25.113281 17.144531 25.460938 17.175781 25.65625 17.40625 L 114.171875 122.894531 C 114.367188 123.128906 114.335938 123.476562 114.101562 123.671875 C 114 123.757812 113.875 123.800781 113.75 123.800781 Z M 113.75 123.800781 " fill-opacity="1" fill-rule="nonzero"/><path fill="#ffb632" d="M 122.234375 115.3125 C 122.109375 115.3125 121.984375 115.273438 121.882812 115.183594 L 16.394531 26.671875 C 16.160156 26.476562 16.128906 26.128906 16.324219 25.894531 C 16.519531 25.660156 16.867188 25.632812 17.101562 25.828125 L 122.589844 114.339844 C 122.824219 114.535156 122.851562 114.882812 122.65625 115.117188 C 122.546875 115.246094 122.390625 115.3125 122.234375 115.3125 Z M 122.234375 115.3125 " fill-opacity="1" fill-rule="nonzero"/><path fill="#ffb632" d="M 122.234375 115.3125 C 122.109375 115.3125 121.984375 115.273438 121.882812 115.183594 L 16.394531 26.671875 C 16.160156 26.476562 16.128906 26.128906 16.324219 25.894531 C 16.519531 25.660156 16.867188 25.632812 17.101562 25.828125 L 122.589844 114.339844 C 122.824219 114.535156 122.851562 114.882812 122.65625 115.117188 C 122.546875 115.246094 122.390625 115.3125 122.234375 115.3125 Z M 122.234375 115.3125 " fill-opacity="1" fill-rule="nonzero"/><path fill="#ffb632" d="M 129.117188 105.484375 C 129.023438 105.484375 128.929688 105.460938 128.84375 105.410156 L 9.589844 36.558594 C 9.324219 36.40625 9.234375 36.066406 9.386719 35.804688 C 9.539062 35.539062 9.875 35.449219 10.140625 35.601562 L 129.394531 104.457031 C 129.65625 104.605469 129.75 104.945312 129.597656 105.207031 C 129.496094 105.382812 129.308594 105.484375 129.117188 105.484375 Z M 129.117188 105.484375 " fill-opacity="1" fill-rule="nonzero"/><path fill="#ffb632" d="M 129.117188 105.484375 C 129.023438 105.484375 128.929688 105.460938 128.84375 105.410156 L 9.589844 36.558594 C 9.324219 36.40625 9.234375 36.066406 9.386719 35.804688 C 9.539062 35.539062 9.875 35.449219 10.140625 35.601562 L 129.394531 104.457031 C 129.65625 104.605469 129.75 104.945312 129.597656 105.207031 C 129.496094 105.382812 129.308594 105.484375 129.117188 105.484375 Z M 129.117188 105.484375 " fill-opacity="1" fill-rule="nonzero"/><path fill="#ffb632" d="M 134.191406 94.605469 C 134.128906 94.605469 134.066406 94.59375 134.003906 94.574219 L 4.601562 47.476562 C 4.316406 47.371094 4.171875 47.054688 4.273438 46.769531 C 4.378906 46.484375 4.695312 46.335938 4.980469 46.441406 L 134.378906 93.539062 C 134.664062 93.640625 134.8125 93.957031 134.707031 94.242188 C 134.628906 94.46875 134.417969 94.605469 134.191406 94.605469 Z M 134.191406 94.605469 " fill-opacity="1" fill-rule="nonzero"/><path fill="#ffb632" d="M 134.191406 94.605469 C 134.128906 94.605469 134.066406 94.59375 134.003906 94.574219 L 4.601562 47.476562 C 4.316406 47.371094 4.171875 47.054688 4.273438 46.769531 C 4.378906 46.484375 4.695312 46.335938 4.980469 46.441406 L 134.378906 93.539062 C 134.664062 93.640625 134.8125 93.957031 134.707031 94.242188 C 134.628906 94.46875 134.417969 94.605469 134.191406 94.605469 Z M 134.191406 94.605469 " fill-opacity="1" fill-rule="nonzero"/><path fill="#ffb632" d="M 137.296875 83.011719 C 137.265625 83.011719 137.234375 83.011719 137.203125 83.003906 L 1.589844 59.09375 C 1.289062 59.039062 1.089844 58.753906 1.144531 58.453125 C 1.195312 58.15625 1.480469 57.953125 1.78125 58.007812 L 137.394531 81.917969 C 137.691406 81.972656 137.894531 82.257812 137.839844 82.558594 C 137.792969 82.824219 137.5625 83.011719 137.296875 83.011719 Z M 137.296875 83.011719 " fill-opacity="1" fill-rule="nonzero"/><path fill="#ffb632" d="M 137.296875 83.011719 C 137.265625 83.011719 137.234375 83.011719 137.203125 83.003906 L 1.589844 59.09375 C 1.289062 59.039062 1.089844 58.753906 1.144531 58.453125 C 1.195312 58.15625 1.480469 57.953125 1.78125 58.007812 L 137.394531 81.917969 C 137.691406 81.972656 137.894531 82.257812 137.839844 82.558594 C 137.792969 82.824219 137.5625 83.011719 137.296875 83.011719 Z M 137.296875 83.011719 " fill-opacity="1" fill-rule="nonzero"/><g clip-path="url(#434f6d9e5f)"><path fill="#ffb632" d="M 138.34375 71.058594 L 0.640625 71.058594 C 0.335938 71.058594 0.0898438 70.808594 0.0898438 70.507812 C 0.0898438 70.203125 0.335938 69.957031 0.640625 69.957031 L 138.34375 69.957031 C 138.648438 69.957031 138.894531 70.203125 138.894531 70.507812 C 138.894531 70.808594 138.648438 71.058594 138.34375 71.058594 Z M 138.34375 71.058594 " fill-opacity="1" fill-rule="nonzero"/><path fill="#ffb632" d="M 138.34375 71.058594 L 0.640625 71.058594 C 0.335938 71.058594 0.0898438 70.808594 0.0898438 70.507812 C 0.0898438 70.203125 0.335938 69.957031 0.640625 69.957031 L 138.34375 69.957031 C 138.648438 69.957031 138.894531 70.203125 138.894531 70.507812 C 138.894531 70.808594 138.648438 71.058594 138.34375 71.058594 Z M 138.34375 71.058594 " fill-opacity="1" fill-rule="nonzero"/></g><path fill="#ffb632" d="M 1.683594 83.011719 C 1.421875 83.011719 1.191406 82.824219 1.144531 82.558594 C 1.089844 82.257812 1.289062 81.972656 1.589844 81.917969 L 137.203125 58.007812 C 137.5 57.953125 137.789062 58.15625 137.839844 58.453125 C 137.894531 58.753906 137.691406 59.039062 137.394531 59.09375 L 1.78125 83.003906 C 1.75 83.011719 1.714844 83.011719 1.683594 83.011719 Z M 1.683594 83.011719 " fill-opacity="1" fill-rule="nonzero"/><path fill="#ffb632" d="M 1.683594 83.011719 C 1.421875 83.011719 1.191406 82.824219 1.144531 82.558594 C 1.089844 82.257812 1.289062 81.972656 1.589844 81.917969 L 137.203125 58.007812 C 137.5 57.953125 137.789062 58.15625 137.839844 58.453125 C 137.894531 58.753906 137.691406 59.039062 137.394531 59.09375 L 1.78125 83.003906 C 1.75 83.011719 1.714844 83.011719 1.683594 83.011719 Z M 1.683594 83.011719 " fill-opacity="1" fill-rule="nonzero"/><path fill="#ffb632" d="M 4.792969 94.605469 C 4.566406 94.605469 4.355469 94.46875 4.273438 94.242188 C 4.171875 93.957031 4.316406 93.640625 4.601562 93.539062 L 134.003906 46.441406 C 134.289062 46.335938 134.605469 46.484375 134.707031 46.769531 C 134.8125 47.054688 134.664062 47.371094 134.378906 47.476562 L 4.980469 94.574219 C 4.917969 94.59375 4.855469 94.605469 4.792969 94.605469 Z M 4.792969 94.605469 " fill-opacity="1" fill-rule="nonzero"/><path fill="#ffb632" d="M 4.792969 94.605469 C 4.566406 94.605469 4.355469 94.46875 4.273438 94.242188 C 4.171875 93.957031 4.316406 93.640625 4.601562 93.539062 L 134.003906 46.441406 C 134.289062 46.335938 134.605469 46.484375 134.707031 46.769531 C 134.8125 47.054688 134.664062 47.371094 134.378906 47.476562 L 4.980469 94.574219 C 4.917969 94.59375 4.855469 94.605469 4.792969 94.605469 Z M 4.792969 94.605469 " fill-opacity="1" fill-rule="nonzero"/><path fill="#ffb632" d="M 9.863281 105.484375 C 9.675781 105.484375 9.488281 105.382812 9.386719 105.207031 C 9.234375 104.945312 9.324219 104.605469 9.589844 104.457031 L 128.84375 35.601562 C 129.109375 35.449219 129.445312 35.542969 129.597656 35.804688 C 129.75 36.066406 129.65625 36.40625 129.394531 36.558594 L 10.140625 105.410156 C 10.050781 105.460938 9.957031 105.484375 9.863281 105.484375 Z M 9.863281 105.484375 " fill-opacity="1" fill-rule="nonzero"/><path fill="#ffb632" d="M 9.863281 105.484375 C 9.675781 105.484375 9.488281 105.382812 9.386719 105.207031 C 9.234375 104.945312 9.324219 104.605469 9.589844 104.457031 L 128.84375 35.601562 C 129.109375 35.449219 129.445312 35.542969 129.597656 35.804688 C 129.75 36.066406 129.65625 36.40625 129.394531 36.558594 L 10.140625 105.410156 C 10.050781 105.460938 9.957031 105.484375 9.863281 105.484375 Z M 9.863281 105.484375 " fill-opacity="1" fill-rule="nonzero"/><path fill="#ffb632" d="M 16.746094 115.3125 C 16.589844 115.3125 16.433594 115.246094 16.324219 115.117188 C 16.128906 114.882812 16.160156 114.535156 16.394531 114.339844 L 121.882812 25.828125 C 122.113281 25.632812 122.460938 25.660156 122.65625 25.894531 C 122.851562 26.128906 122.824219 26.476562 122.589844 26.671875 L 17.101562 115.183594 C 17 115.273438 16.871094 115.3125 16.746094 115.3125 Z M 16.746094 115.3125 " fill-opacity="1" fill-rule="nonzero"/><path fill="#ffb632" d="M 16.746094 115.3125 C 16.589844 115.3125 16.433594 115.246094 16.324219 115.117188 C 16.128906 114.882812 16.160156 114.535156 16.394531 114.339844 L 121.882812 25.828125 C 122.113281 25.632812 122.460938 25.660156 122.65625 25.894531 C 122.851562 26.128906 122.824219 26.476562 122.589844 26.671875 L 17.101562 115.183594 C 17 115.273438 16.871094 115.3125 16.746094 115.3125 Z M 16.746094 115.3125 " fill-opacity="1" fill-rule="nonzero"/><path fill="#ffb632" d="M 25.234375 123.800781 C 25.109375 123.800781 24.984375 123.757812 24.878906 123.671875 C 24.648438 123.476562 24.617188 123.128906 24.8125 122.894531 L 113.328125 17.40625 C 113.523438 17.175781 113.871094 17.144531 114.101562 17.339844 C 114.335938 17.535156 114.367188 17.882812 114.171875 18.117188 L 25.65625 123.605469 C 25.546875 123.734375 25.390625 123.800781 25.234375 123.800781 Z M 25.234375 123.800781 " fill-opacity="1" fill-rule="nonzero"/><path fill="#ffb632" d="M 25.234375 123.800781 C 25.109375 123.800781 24.984375 123.757812 24.878906 123.671875 C 24.648438 123.476562 24.617188 123.128906 24.8125 122.894531 L 113.328125 17.40625 C 113.523438 17.175781 113.871094 17.144531 114.101562 17.339844 C 114.335938 17.535156 114.367188 17.882812 114.171875 18.117188 L 25.65625 123.605469 C 25.546875 123.734375 25.390625 123.800781 25.234375 123.800781 Z M 25.234375 123.800781 " fill-opacity="1" fill-rule="nonzero"/><path fill="#ffb632" d="M 35.066406 130.683594 C 34.972656 130.683594 34.875 130.660156 34.789062 130.609375 C 34.527344 130.457031 34.4375 130.121094 34.589844 129.859375 L 103.441406 10.601562 C 103.59375 10.339844 103.929688 10.25 104.191406 10.402344 C 104.457031 10.554688 104.546875 10.890625 104.394531 11.152344 L 35.542969 130.410156 C 35.441406 130.585938 35.253906 130.683594 35.066406 130.683594 Z M 35.066406 130.683594 " fill-opacity="1" fill-rule="nonzero"/><path fill="#ffb632" d="M 35.066406 130.683594 C 34.972656 130.683594 34.875 130.660156 34.789062 130.609375 C 34.527344 130.457031 34.4375 130.121094 34.589844 129.859375 L 103.441406 10.601562 C 103.59375 10.339844 103.929688 10.25 104.191406 10.402344 C 104.457031 10.554688 104.546875 10.890625 104.394531 11.152344 L 35.542969 130.410156 C 35.441406 130.585938 35.253906 130.683594 35.066406 130.683594 Z M 35.066406 130.683594 " fill-opacity="1" fill-rule="nonzero"/><path fill="#ffb632" d="M 45.941406 135.757812 C 45.878906 135.757812 45.816406 135.746094 45.753906 135.722656 C 45.46875 135.621094 45.320312 135.304688 45.425781 135.015625 L 92.523438 5.617188 C 92.625 5.332031 92.941406 5.183594 93.230469 5.289062 C 93.515625 5.394531 93.660156 5.707031 93.558594 5.996094 L 46.460938 135.394531 C 46.378906 135.617188 46.167969 135.757812 45.941406 135.757812 Z M 45.941406 135.757812 " fill-opacity="1" fill-rule="nonzero"/><path fill="#ffb632" d="M 45.941406 135.757812 C 45.878906 135.757812 45.816406 135.746094 45.753906 135.722656 C 45.46875 135.621094 45.320312 135.304688 45.425781 135.015625 L 92.523438 5.617188 C 92.625 5.332031 92.941406 5.183594 93.230469 5.289062 C 93.515625 5.394531 93.660156 5.707031 93.558594 5.996094 L 46.460938 135.394531 C 46.378906 135.617188 46.167969 135.757812 45.941406 135.757812 Z M 45.941406 135.757812 " fill-opacity="1" fill-rule="nonzero"/><path fill="#ffb632" d="M 57.535156 138.863281 C 57.503906 138.863281 57.472656 138.859375 57.441406 138.855469 C 57.140625 138.800781 56.941406 138.515625 56.992188 138.214844 L 80.90625 2.605469 C 80.957031 2.304688 81.242188 2.105469 81.542969 2.15625 C 81.84375 2.210938 82.042969 2.496094 81.988281 2.796875 L 58.078125 138.40625 C 58.03125 138.675781 57.796875 138.863281 57.535156 138.863281 Z M 57.535156 138.863281 " fill-opacity="1" fill-rule="nonzero"/></g></g></g><g clip-path="url(#9f67f0e8d4)"><path fill="#3d7ad5" d="M 248.554688 193.902344 L 245.214844 197.023438 L 245.707031 199.160156 C 229.664062 216.9375 219.074219 225.347656 215.980469 220.867188 C 213.511719 212.363281 214.75 203.953125 218.632812 195.609375 L 221.933594 194.0625 L 222.570312 186.742188 L 217.5 192.058594 L 218.539062 195.617188 C 214.34375 202.65625 209.839844 208.886719 204.6875 213.441406 C 199.261719 218.234375 197.605469 218.90625 194.097656 211.367188 C 191.496094 205.777344 190.605469 198.292969 188.859375 191.753906 L 193.304688 186.566406 L 187.496094 170.027344 L 181.6875 186.566406 L 186.132812 191.753906 C 184.382812 198.289062 183.496094 205.777344 180.894531 211.367188 C 177.386719 218.90625 175.730469 218.234375 170.304688 213.441406 C 165.152344 208.886719 160.644531 202.652344 156.453125 195.617188 L 157.492188 192.058594 L 152.417969 186.746094 L 153.054688 194.0625 L 156.359375 195.609375 C 160.242188 203.953125 161.480469 212.363281 159.011719 220.867188 C 155.917969 225.347656 145.328125 216.9375 129.285156 199.160156 L 129.777344 197.023438 L 126.433594 193.902344 L 127.09375 198.429688 L 129.074219 199.222656 L 151.925781 239.003906 L 144.910156 219.679688 C 145.050781 219.792969 145.195312 219.910156 145.335938 220.023438 C 148.914062 222.890625 155.183594 227.527344 159.933594 224.765625 C 160.738281 224.296875 161.414062 223.65625 161.941406 222.890625 L 162.269531 222.414062 L 162.429688 221.859375 C 163.386719 218.558594 163.835938 215.28125 163.839844 212.035156 C 165.144531 213.476562 166.511719 214.839844 167.949219 216.109375 C 170.363281 218.242188 173.421875 221.058594 176.914062 220.542969 C 180.6875 219.984375 182.683594 215.960938 184.125 212.867188 C 185.71875 209.4375 186.675781 205.613281 187.496094 201.863281 C 188.320312 205.613281 189.273438 209.4375 190.871094 212.867188 C 192.308594 215.960938 194.308594 219.984375 198.082031 220.542969 C 201.570312 221.054688 204.632812 218.242188 207.046875 216.109375 C 208.480469 214.839844 209.847656 213.476562 211.152344 212.035156 C 211.160156 215.28125 211.605469 218.558594 212.5625 221.859375 L 212.722656 222.414062 L 213.050781 222.890625 C 213.582031 223.65625 214.253906 224.296875 215.058594 224.765625 C 219.8125 227.53125 226.078125 222.890625 229.65625 220.023438 C 229.800781 219.910156 229.941406 219.792969 230.082031 219.679688 L 223.925781 237.574219 L 245.917969 199.222656 L 247.898438 198.429688 Z M 248.554688 193.902344 " fill-opacity="1" fill-rule="evenodd"/></g><path fill="#3d7ad5" d="M 175.503906 208.664062 C 175.910156 210.535156 176.371094 212.425781 176.996094 214.230469 C 177.414062 213.683594 177.980469 212.769531 178.726562 211.234375 C 177.589844 207.035156 176.96875 202.265625 175.5 198.429688 C 173.917969 202.574219 173.320312 207.8125 171.988281 212.238281 C 172.578125 212.757812 173.351562 213.421875 174.09375 213.980469 C 174.675781 212.25 175.113281 210.445312 175.503906 208.664062 Z M 175.503906 208.664062 " fill-opacity="1" fill-rule="evenodd"/><path fill="#3d7ad5" d="M 199.453125 208.664062 C 199.847656 210.453125 200.285156 212.265625 200.871094 214 C 201.609375 213.449219 202.382812 212.785156 202.976562 212.265625 C 201.640625 207.832031 201.042969 202.582031 199.453125 198.429688 C 197.996094 202.25 197.371094 207 196.242188 211.1875 C 196.984375 212.71875 197.550781 213.644531 197.972656 214.199219 C 198.589844 212.402344 199.046875 210.523438 199.453125 208.664062 Z M 199.453125 208.664062 " fill-opacity="1" fill-rule="evenodd"/><path fill="#3d7ad5" d="M 220.625 219.390625 C 221.0625 216.550781 221.800781 213.5625 221.875 210.890625 C 220.199219 212.667969 218.726562 215.027344 217.1875 217.191406 C 217.328125 217.980469 217.507812 218.769531 217.714844 219.550781 C 218.179688 218.941406 218.628906 218.316406 219.0625 217.691406 C 218.925781 218.460938 218.796875 219.238281 218.695312 220.019531 C 219.175781 219.957031 219.804688 219.777344 220.625 219.390625 Z M 220.625 219.390625 " fill-opacity="1" fill-rule="evenodd"/><path fill="#3d7ad5" d="M 157.804688 217.191406 C 156.265625 215.027344 154.792969 212.667969 153.113281 210.890625 C 153.1875 213.558594 153.929688 216.546875 154.363281 219.390625 C 155.1875 219.777344 155.816406 219.957031 156.292969 220.015625 C 156.191406 219.234375 156.066406 218.457031 155.925781 217.691406 C 156.363281 218.316406 156.808594 218.941406 157.277344 219.550781 C 157.484375 218.769531 157.664062 217.980469 157.804688 217.191406 Z M 157.804688 217.191406 " fill-opacity="1" fill-rule="evenodd"/></svg>