<svg xmlns="http://www.w3.org/2000/svg" viewBox="0 0 128 128" width="128" height="128" role="img" aria-label="Champions of Hope icon">
  <path fill="#FFB632" d="M 114 7 L 109 8 L 103 21 L 89 44 L 84 40 L 69 13 L 67 11 L 63 11 L 63 18 L 60 23 L 59 28 L 49 51 L 46 50 L 16 21 L 15 14 L 11 15 L 11 31 L 10 32 L 8 63 L 7 64 L 7 80 L 5 90 L 5 99 L 8 115 L 12 122 L 15 119 L 27 113 L 42 109 L 61 109 L 62 110 L 70 110 L 71 111 L 94 114 L 117 122 L 120 122 L 124 119 L 122 113 L 122 102 L 121 101 L 119 72 L 114 75 L 112 74 L 118 66 L 117 63 L 117 48 L 116 47 L 117 14 L 115 11 L 116 9 Z"/>
</svg>
